<svg width="100" height="96" viewBox="0 0 149 96" fill="none" xmlns="http://www.w3.org/2000/svg">
<path fill-rule="evenodd" clip-rule="evenodd" d="M40.084 47.6529C40.0393 47.9311 39.9304 48.1959 39.7654 48.4275C39.6004 48.659 39.3836 48.8512 39.1313 48.9898C38.6231 49.3086 38.1785 49.468 37.7286 49.6274C36.7705 49.9488 35.7621 50.2702 34.6956 50.643C33.5708 51.0157 32.5624 51.3885 31.6626 51.6585C30.5404 52.0313 29.4738 52.3526 28.4602 52.7254C27.6976 53.0425 26.9812 53.4556 26.3297 53.9544C25.7237 54.4877 25.1949 55.0983 24.7576 55.7695C24.3077 56.515 24.0245 57.4766 24.0245 58.5975C24.0245 60.842 24.5856 62.5491 25.7104 63.6161C26.8325 64.7396 28.9127 65.2718 31.996 65.2718C35.1402 65.2718 37.2733 64.6856 38.4008 63.5107C39.5203 62.3357 40.0814 60.6826 40.0814 58.5487V47.6529H40.084ZM31.9987 24C37.5036 24 41.545 25.0155 44.1254 27.098C46.7085 29.1291 48 31.7412 48 34.8366V61.2148C48 62.2817 47.7777 63.4567 47.386 64.737C46.989 66.0225 46.2056 67.1949 44.9696 68.2592C43.7919 69.3313 42.1643 70.2389 40.0867 70.933C38.0091 71.6272 35.3149 72 32.0013 72C28.6931 72 25.9935 71.6272 23.9186 70.933C21.8437 70.2389 20.2134 69.3313 19.0356 68.2592C17.94 67.3001 17.1101 66.089 16.622 64.737C16.225 63.4592 16 62.2843 16 61.2174V57.001C16 54.7565 16.6167 52.674 17.8526 50.8563C19.0886 48.9898 20.8274 47.7095 23.0744 46.9073C24.1965 46.5345 25.488 46.1618 26.9463 45.681C28.4072 45.1976 29.7517 44.7169 31.1015 44.2927C32.4512 43.8633 33.629 43.434 34.6373 43.0586C35.2458 42.8221 35.8639 42.6094 36.49 42.421L37.5009 41.9402C37.8979 41.7268 38.287 41.4055 38.6813 40.9787C39.073 40.5545 39.4091 40.0737 39.6923 39.5389C39.9915 38.9599 40.1457 38.3203 40.1423 37.6724V35.9627C40.1464 35.3361 40.011 34.716 39.7453 34.145C39.523 33.5023 39.073 32.9161 38.4564 32.3839C37.8397 31.8492 36.9955 31.4224 35.9871 31.0984C34.9761 30.7822 33.6316 30.6202 32.1125 30.6202C28.9683 30.6202 26.8907 31.2116 25.7686 32.4354C24.8158 33.5049 24.2547 34.8392 24.1436 36.3329C24.1436 36.6543 23.863 36.8677 23.5243 36.8677L16.6775 36.9757C16.5149 36.9764 16.3586 36.9146 16.2426 36.8039C16.1266 36.6931 16.0603 36.5423 16.0582 36.3844V34.8418C16.0582 33.3429 16.3414 31.9546 16.9581 30.6202C17.5774 29.2833 18.5328 28.165 19.8217 27.2009C21.1132 26.2419 22.7991 25.4423 24.8185 24.9076C26.7849 24.2648 29.1986 24 32.004 24H31.9987Z" fill="#0A3871"/>
</svg>
